<svg viewBox="0.00000 0.00000 400.00000 160.00000" xmlns="http://www.w3.org/2000/svg"><path d="M 0.00000 0.00000 h 5.12821 v 127.00000 h -5.12821 z M 7.69231 0.00000 h 2.56410 v 127.00000 h -2.56410 z M 15.38462 0.00000 h 2.56410 v 127.00000 h -2.56410 z M 28.20513 0.00000 h 2.56410 v 127.00000 h -2.56410 z M 35.89744 0.00000 h 5.12821 v 127.00000 h -5.12821 z M 51.28205 0.00000 h 2.56410 v 127.00000 h -2.56410 z M 56.41026 0.00000 h 2.56410 v 127.00000 h -2.56410 z M 69.23077 0.00000 h 5.12821 v 127.00000 h -5.12821 z M 79.48718 0.00000 h 2.56410 v 127.00000 h -2.56410 z M 84.61538 0.00000 h 2.56410 v 127.00000 h -2.56410 z M 92.30769 0.00000 h 5.12821 v 127.00000 h -5.12821 z M 107.69231 0.00000 h 2.56410 v 127.00000 h -2.56410 z M 112.82051 0.00000 h 2.56410 v 127.00000 h -2.56410 z M 120.51282 0.00000 h 5.12821 v 127.00000 h -5.12821 z M 135.89744 0.00000 h 2.56410 v 127.00000 h -2.56410 z M 141.02564 0.00000 h 2.56410 v 127.00000 h -2.56410 z M 153.84615 0.00000 h 5.12821 v 127.00000 h -5.12821 z M 164.10256 0.00000 h 2.56410 v 127.00000 h -2.56410 z M 169.23077 0.00000 h 2.56410 v 127.00000 h -2.56410 z M 182.05128 0.00000 h 5.12821 v 127.00000 h -5.12821 z M 189.74359 0.00000 h 2.56410 v 127.00000 h -2.56410 z M 197.43590 0.00000 h 2.56410 v 127.00000 h -2.56410 z M 205.12821 0.00000 h 10.25641 v 127.00000 h -10.25641 z M 220.51282 0.00000 h 2.56410 v 127.00000 h -2.56410 z M 225.64103 0.00000 h 2.56410 v 127.00000 h -2.56410 z M 238.46154 0.00000 h 5.12821 v 127.00000 h -5.12821 z M 246.15385 0.00000 h 2.56410 v 127.00000 h -2.56410 z M 253.84615 0.00000 h 2.56410 v 127.00000 h -2.56410 z M 261.53846 0.00000 h 10.25641 v 127.00000 h -10.25641 z M 276.92308 0.00000 h 2.56410 v 127.00000 h -2.56410 z M 282.05128 0.00000 h 2.56410 v 127.00000 h -2.56410 z M 294.87179 0.00000 h 5.12821 v 127.00000 h -5.12821 z M 302.56410 0.00000 h 2.56410 v 127.00000 h -2.56410 z M 310.25641 0.00000 h 2.56410 v 127.00000 h -2.56410 z M 317.94872 0.00000 h 10.25641 v 127.00000 h -10.25641 z M 333.33333 0.00000 h 2.56410 v 127.00000 h -2.56410 z M 338.46154 0.00000 h 2.56410 v 127.00000 h -2.56410 z M 343.58974 0.00000 h 10.25641 v 127.00000 h -10.25641 z M 356.41026 0.00000 h 2.56410 v 127.00000 h -2.56410 z M 366.66667 0.00000 h 5.12821 v 127.00000 h -5.12821 z M 379.48718 0.00000 h 7.69231 v 127.00000 h -7.69231 z M 389.74359 0.00000 h 2.56410 v 127.00000 h -2.56410 z M 394.87179 0.00000 h 5.12821 v 127.00000 h -5.12821 z " style="fill: #000000"/></svg>